<mxfile host="app.diagrams.net" modified="2023-03-18T19:23:31.738Z" agent="5.0 (Windows NT 10.0; Win64; x64) AppleWebKit/537.36 (KHTML, like Gecko) Chrome/111.0.0.0 Safari/537.36" etag="SLHGJ1ORwF5dGbH3rDOR" version="21.0.6" type="github">
  <diagram name="Page-1" id="UlhR_xu9xT3P2rJ_JnBJ">
    <mxGraphModel dx="1434" dy="796" grid="1" gridSize="10" guides="1" tooltips="1" connect="1" arrows="1" fold="1" page="1" pageScale="1" pageWidth="850" pageHeight="1100" math="0" shadow="0">
      <root>
        <mxCell id="0" />
        <mxCell id="1" parent="0" />
        <mxCell id="53RJTy129dmQBJSPGcJN-13" value="" style="edgeStyle=orthogonalEdgeStyle;rounded=0;orthogonalLoop=1;jettySize=auto;html=1;fillColor=#008a00;strokeColor=#005700;" edge="1" parent="1" source="53RJTy129dmQBJSPGcJN-1" target="53RJTy129dmQBJSPGcJN-3">
          <mxGeometry relative="1" as="geometry" />
        </mxCell>
        <mxCell id="53RJTy129dmQBJSPGcJN-1" value="Start" style="ellipse;whiteSpace=wrap;html=1;fillColor=#008a00;fontColor=#ffffff;strokeColor=#005700;" vertex="1" parent="1">
          <mxGeometry x="340" y="40" width="120" height="80" as="geometry" />
        </mxCell>
        <mxCell id="53RJTy129dmQBJSPGcJN-18" value="" style="edgeStyle=orthogonalEdgeStyle;rounded=0;orthogonalLoop=1;jettySize=auto;html=1;entryX=0.5;entryY=0;entryDx=0;entryDy=0;fillColor=#008a00;strokeColor=#005700;" edge="1" parent="1" source="53RJTy129dmQBJSPGcJN-3" target="53RJTy129dmQBJSPGcJN-4">
          <mxGeometry relative="1" as="geometry">
            <mxPoint x="220" y="180" as="targetPoint" />
          </mxGeometry>
        </mxCell>
        <mxCell id="53RJTy129dmQBJSPGcJN-3" value="Read input function DifferencOfFirstThreeElements(arr)" style="rounded=0;whiteSpace=wrap;html=1;fillColor=#008a00;fontColor=#ffffff;strokeColor=#005700;" vertex="1" parent="1">
          <mxGeometry x="300" y="150" width="200" height="60" as="geometry" />
        </mxCell>
        <mxCell id="53RJTy129dmQBJSPGcJN-19" value="" style="edgeStyle=orthogonalEdgeStyle;rounded=0;orthogonalLoop=1;jettySize=auto;html=1;fillColor=#008a00;strokeColor=#005700;" edge="1" parent="1" source="53RJTy129dmQBJSPGcJN-4" target="53RJTy129dmQBJSPGcJN-5">
          <mxGeometry relative="1" as="geometry" />
        </mxCell>
        <mxCell id="53RJTy129dmQBJSPGcJN-22" value="" style="edgeStyle=orthogonalEdgeStyle;rounded=0;orthogonalLoop=1;jettySize=auto;html=1;fillColor=#008a00;strokeColor=#005700;" edge="1" parent="1" source="53RJTy129dmQBJSPGcJN-4" target="53RJTy129dmQBJSPGcJN-6">
          <mxGeometry relative="1" as="geometry" />
        </mxCell>
        <mxCell id="53RJTy129dmQBJSPGcJN-4" value="Check if the length of arr = 0" style="rhombus;whiteSpace=wrap;html=1;fillColor=#008a00;fontColor=#ffffff;strokeColor=#005700;" vertex="1" parent="1">
          <mxGeometry x="90" y="240" width="190" height="130" as="geometry" />
        </mxCell>
        <mxCell id="53RJTy129dmQBJSPGcJN-21" value="" style="edgeStyle=orthogonalEdgeStyle;rounded=0;orthogonalLoop=1;jettySize=auto;html=1;entryX=0;entryY=0.5;entryDx=0;entryDy=0;fillColor=#008a00;strokeColor=#005700;" edge="1" parent="1" source="53RJTy129dmQBJSPGcJN-5" target="53RJTy129dmQBJSPGcJN-11">
          <mxGeometry relative="1" as="geometry">
            <mxPoint x="180" y="670" as="targetPoint" />
            <Array as="points">
              <mxPoint x="180" y="660" />
            </Array>
          </mxGeometry>
        </mxCell>
        <mxCell id="53RJTy129dmQBJSPGcJN-5" value="Return 0" style="rounded=0;whiteSpace=wrap;html=1;fillColor=#008a00;fontColor=#ffffff;strokeColor=#005700;" vertex="1" parent="1">
          <mxGeometry x="125" y="440" width="120" height="60" as="geometry" />
        </mxCell>
        <mxCell id="53RJTy129dmQBJSPGcJN-24" value="" style="edgeStyle=orthogonalEdgeStyle;rounded=0;orthogonalLoop=1;jettySize=auto;html=1;entryX=0.5;entryY=0;entryDx=0;entryDy=0;fillColor=#008a00;strokeColor=#005700;" edge="1" parent="1" source="53RJTy129dmQBJSPGcJN-6" target="53RJTy129dmQBJSPGcJN-7">
          <mxGeometry relative="1" as="geometry" />
        </mxCell>
        <mxCell id="53RJTy129dmQBJSPGcJN-27" value="" style="edgeStyle=orthogonalEdgeStyle;rounded=0;orthogonalLoop=1;jettySize=auto;html=1;fillColor=#008a00;strokeColor=#005700;" edge="1" parent="1" source="53RJTy129dmQBJSPGcJN-6" target="53RJTy129dmQBJSPGcJN-8">
          <mxGeometry relative="1" as="geometry" />
        </mxCell>
        <mxCell id="53RJTy129dmQBJSPGcJN-6" value="Check if the length of arr = 1" style="rhombus;whiteSpace=wrap;html=1;fillColor=#008a00;fontColor=#ffffff;strokeColor=#005700;" vertex="1" parent="1">
          <mxGeometry x="320" y="250" width="220" height="110" as="geometry" />
        </mxCell>
        <mxCell id="53RJTy129dmQBJSPGcJN-26" value="" style="edgeStyle=orthogonalEdgeStyle;rounded=0;orthogonalLoop=1;jettySize=auto;html=1;fillColor=#008a00;strokeColor=#005700;" edge="1" parent="1" source="53RJTy129dmQBJSPGcJN-7" target="53RJTy129dmQBJSPGcJN-11">
          <mxGeometry relative="1" as="geometry">
            <mxPoint x="350" y="580" as="targetPoint" />
          </mxGeometry>
        </mxCell>
        <mxCell id="53RJTy129dmQBJSPGcJN-7" value="Return arr[0]" style="rounded=0;whiteSpace=wrap;html=1;fillColor=#008a00;fontColor=#ffffff;strokeColor=#005700;" vertex="1" parent="1">
          <mxGeometry x="290" y="440" width="120" height="60" as="geometry" />
        </mxCell>
        <mxCell id="53RJTy129dmQBJSPGcJN-30" value="" style="edgeStyle=orthogonalEdgeStyle;rounded=0;orthogonalLoop=1;jettySize=auto;html=1;fillColor=#008a00;strokeColor=#005700;" edge="1" parent="1" source="53RJTy129dmQBJSPGcJN-8" target="53RJTy129dmQBJSPGcJN-9">
          <mxGeometry relative="1" as="geometry" />
        </mxCell>
        <mxCell id="53RJTy129dmQBJSPGcJN-31" value="" style="edgeStyle=orthogonalEdgeStyle;rounded=0;orthogonalLoop=1;jettySize=auto;html=1;entryX=0.75;entryY=0;entryDx=0;entryDy=0;fillColor=#008a00;strokeColor=#005700;" edge="1" parent="1" source="53RJTy129dmQBJSPGcJN-8" target="53RJTy129dmQBJSPGcJN-10">
          <mxGeometry relative="1" as="geometry">
            <mxPoint x="840" y="305" as="targetPoint" />
          </mxGeometry>
        </mxCell>
        <mxCell id="53RJTy129dmQBJSPGcJN-8" value="Check if the length of arr = 2" style="rhombus;whiteSpace=wrap;html=1;fillColor=#008a00;fontColor=#ffffff;strokeColor=#005700;" vertex="1" parent="1">
          <mxGeometry x="580" y="240" width="180" height="130" as="geometry" />
        </mxCell>
        <mxCell id="53RJTy129dmQBJSPGcJN-34" value="" style="edgeStyle=orthogonalEdgeStyle;rounded=0;orthogonalLoop=1;jettySize=auto;html=1;entryX=0.942;entryY=0.213;entryDx=0;entryDy=0;entryPerimeter=0;fillColor=#008a00;strokeColor=#005700;" edge="1" parent="1" source="53RJTy129dmQBJSPGcJN-9" target="53RJTy129dmQBJSPGcJN-11">
          <mxGeometry relative="1" as="geometry">
            <mxPoint x="530" y="580" as="targetPoint" />
          </mxGeometry>
        </mxCell>
        <mxCell id="53RJTy129dmQBJSPGcJN-9" value="Return arr[0] - arr[1]" style="rounded=0;whiteSpace=wrap;html=1;fillColor=#008a00;fontColor=#ffffff;strokeColor=#005700;" vertex="1" parent="1">
          <mxGeometry x="470" y="440" width="120" height="60" as="geometry" />
        </mxCell>
        <mxCell id="53RJTy129dmQBJSPGcJN-35" value="" style="edgeStyle=orthogonalEdgeStyle;rounded=0;orthogonalLoop=1;jettySize=auto;html=1;entryX=1;entryY=0.5;entryDx=0;entryDy=0;fillColor=#008a00;strokeColor=#005700;" edge="1" parent="1" source="53RJTy129dmQBJSPGcJN-10" target="53RJTy129dmQBJSPGcJN-11">
          <mxGeometry relative="1" as="geometry">
            <mxPoint x="720" y="590" as="targetPoint" />
            <Array as="points">
              <mxPoint x="700" y="660" />
            </Array>
          </mxGeometry>
        </mxCell>
        <mxCell id="53RJTy129dmQBJSPGcJN-10" value="Return arr[0] - arr[1] - arr[2]" style="rounded=0;whiteSpace=wrap;html=1;fillColor=#008a00;fontColor=#ffffff;strokeColor=#005700;" vertex="1" parent="1">
          <mxGeometry x="640" y="440" width="160" height="70" as="geometry" />
        </mxCell>
        <mxCell id="53RJTy129dmQBJSPGcJN-11" value="END" style="ellipse;whiteSpace=wrap;html=1;fillColor=#008a00;fontColor=#ffffff;strokeColor=#005700;" vertex="1" parent="1">
          <mxGeometry x="340" y="620" width="120" height="80" as="geometry" />
        </mxCell>
        <mxCell id="53RJTy129dmQBJSPGcJN-20" value="if true" style="text;html=1;align=center;verticalAlign=middle;resizable=0;points=[];autosize=1;strokeColor=#005700;fillColor=#008a00;fontColor=#ffffff;" vertex="1" parent="1">
          <mxGeometry x="180" y="395" width="50" height="30" as="geometry" />
        </mxCell>
        <mxCell id="53RJTy129dmQBJSPGcJN-23" value="if false" style="text;html=1;align=center;verticalAlign=middle;resizable=0;points=[];autosize=1;strokeColor=#005700;fillColor=#008a00;fontColor=#ffffff;" vertex="1" parent="1">
          <mxGeometry x="270" y="270" width="60" height="30" as="geometry" />
        </mxCell>
        <mxCell id="53RJTy129dmQBJSPGcJN-25" value="if true" style="text;html=1;align=center;verticalAlign=middle;resizable=0;points=[];autosize=1;strokeColor=#005700;fillColor=#008a00;fontColor=#ffffff;" vertex="1" parent="1">
          <mxGeometry x="345" y="375" width="50" height="30" as="geometry" />
        </mxCell>
        <mxCell id="53RJTy129dmQBJSPGcJN-28" value="if false" style="text;html=1;align=center;verticalAlign=middle;resizable=0;points=[];autosize=1;strokeColor=#005700;fillColor=#008a00;fontColor=#ffffff;" vertex="1" parent="1">
          <mxGeometry x="535" y="270" width="60" height="30" as="geometry" />
        </mxCell>
        <mxCell id="53RJTy129dmQBJSPGcJN-32" value="if true" style="text;html=1;align=center;verticalAlign=middle;resizable=0;points=[];autosize=1;strokeColor=#005700;fillColor=#008a00;fontColor=#ffffff;" vertex="1" parent="1">
          <mxGeometry x="540" y="375" width="50" height="30" as="geometry" />
        </mxCell>
        <mxCell id="53RJTy129dmQBJSPGcJN-33" value="if false" style="text;html=1;align=center;verticalAlign=middle;resizable=0;points=[];autosize=1;strokeColor=#005700;fillColor=#008a00;fontColor=#ffffff;" vertex="1" parent="1">
          <mxGeometry x="710" y="375" width="60" height="30" as="geometry" />
        </mxCell>
      </root>
    </mxGraphModel>
  </diagram>
</mxfile>
